name Walk5.mot
datacolumns 19
datarows 27
range 3.30700000 3.33300000
endheader

                time	   L_ground_force_vx	   L_ground_force_vy	   L_ground_force_vz	   L_ground_force_px	   L_ground_force_py	   L_ground_force_pz	   R_ground_force_vx	   R_ground_force_vy	   R_ground_force_vz	   R_ground_force_px	   R_ground_force_py	   R_ground_force_pz	   L_ground_torque_x	   L_ground_torque_y	   L_ground_torque_z	   R_ground_torque_x	   R_ground_torque_y	   R_ground_torque_z	
          3.30700000	          0.00000000	          0.00000000	          0.00000000	          0.00000000	          0.00000000	          0.00000000	          3.00937989	        888.82263002	        -66.82798790	          0.12673267	          0.00000000	          0.13124360	          0.00000000	          0.00000000	          0.00000000	          0.00000000	         15.64034383	          0.00000000	
          3.30800000	          0.00000000	          0.00000000	          0.00000000	          0.00000000	          0.00000000	          0.00000000	          3.31064335	        888.92529573	        -66.54297578	          0.12686842	          0.00000000	          0.13131272	          0.00000000	          0.00000000	          0.00000000	          0.00000000	         15.58735282	          0.00000000	
          3.30900000	          0.00000000	          0.00000000	          0.00000000	          0.00000000	          0.00000000	          0.00000000	          3.60787753	        888.92338208	        -66.22733088	          0.12692772	          0.00000000	          0.13137010	          0.00000000	          0.00000000	          0.00000000	          0.00000000	         15.52541927	          0.00000000	
          3.31000000	          0.00000000	          0.00000000	          0.00000000	          0.00000000	          0.00000000	          0.00000000	          3.91401165	        888.87943859	        -65.87367963	          0.12696154	          0.00000000	          0.13141086	          0.00000000	          0.00000000	          0.00000000	          0.00000000	         15.45805539	          0.00000000	
          3.31100000	          0.00000000	          0.00000000	          0.00000000	          0.00000000	          0.00000000	          0.00000000	          4.22989428	        888.85647418	        -65.48394842	          0.12703004	          0.00000000	          0.13144063	          0.00000000	          0.00000000	          0.00000000	          0.00000000	         15.38754311	          0.00000000	
          3.31200000	          0.00000000	          0.00000000	          0.00000000	          0.00000000	          0.00000000	          0.00000000	          4.54598737	        888.87570604	        -65.07260602	          0.12715914	          0.00000000	          0.13146468	          0.00000000	          0.00000000	          0.00000000	          0.00000000	         15.31637263	          0.00000000	
          3.31300000	          0.00000000	          0.00000000	          0.00000000	          0.00000000	          0.00000000	          0.00000000	          4.84828447	        888.93790550	        -64.66602212	          0.12732860	          0.00000000	          0.13147739	          0.00000000	          0.00000000	          0.00000000	          0.00000000	         15.25108179	          0.00000000	
          3.31400000	          0.00000000	          0.00000000	          0.00000000	          0.00000000	          0.00000000	          0.00000000	          5.12824225	        889.04607757	        -64.28859105	          0.12749133	          0.00000000	          0.13146933	          0.00000000	          0.00000000	          0.00000000	          0.00000000	         15.19944976	          0.00000000	
          3.31500000	          0.00000000	          0.00000000	          0.00000000	          0.00000000	          0.00000000	          0.00000000	          5.38597946	        889.19858369	        -63.94910454	          0.12761482	          0.00000000	          0.13143896	          0.00000000	          0.00000000	          0.00000000	          0.00000000	         15.16187835	          0.00000000	
          3.31600000	          0.00000000	          0.00000000	          0.00000000	          0.00000000	          0.00000000	          0.00000000	          5.62339747	        889.38241080	        -63.64255520	          0.12770379	          0.00000000	          0.13139393	          0.00000000	          0.00000000	          0.00000000	          0.00000000	         15.12925836	          0.00000000	
          3.31700000	          0.00000000	          0.00000000	          0.00000000	          0.00000000	          0.00000000	          0.00000000	          5.84426191	        889.58663622	        -63.35469134	          0.12778249	          0.00000000	          0.13135307	          0.00000000	          0.00000000	          0.00000000	          0.00000000	         15.08942236	          0.00000000	
          3.31800000	          0.00000000	          0.00000000	          0.00000000	          0.00000000	          0.00000000	          0.00000000	          6.06135983	        889.82586892	        -63.06157796	          0.12787627	          0.00000000	          0.13134592	          0.00000000	          0.00000000	          0.00000000	          0.00000000	         15.03386731	          0.00000000	
          3.31900000	          0.00000000	          0.00000000	          0.00000000	          0.00000000	          0.00000000	          0.00000000	          6.29069822	        890.12298517	        -62.73905668	          0.12800272	          0.00000000	          0.13139385	          0.00000000	          0.00000000	          0.00000000	          0.00000000	         14.96204179	          0.00000000	
          3.32000000	          0.00000000	          0.00000000	          0.00000000	          0.00000000	          0.00000000	          0.00000000	          6.53877009	        890.45881981	        -62.38320641	          0.12815856	          0.00000000	          0.13148803	          0.00000000	          0.00000000	          0.00000000	          0.00000000	         14.88255954	          0.00000000	
          3.32100000	          0.00000000	          0.00000000	          0.00000000	          0.00000000	          0.00000000	          0.00000000	          6.80129803	        890.78507532	        -62.01546681	          0.12832716	          0.00000000	          0.13159174	          0.00000000	          0.00000000	          0.00000000	          0.00000000	         14.80712253	          0.00000000	
          3.32200000	          0.00000000	          0.00000000	          0.00000000	          0.00000000	          0.00000000	          0.00000000	          7.06785061	        891.09048759	        -61.66443754	          0.12849911	          0.00000000	          0.13166570	          0.00000000	          0.00000000	          0.00000000	          0.00000000	         14.74157607	          0.00000000	
          3.32300000	          0.00000000	          0.00000000	          0.00000000	          0.00000000	          0.00000000	          0.00000000	          7.32536584	        891.41399656	        -61.34777172	          0.12867099	          0.00000000	          0.13169631	          0.00000000	          0.00000000	          0.00000000	          0.00000000	         14.68400847	          0.00000000	
          3.32400000	          0.00000000	          0.00000000	          0.00000000	          0.00000000	          0.00000000	          0.00000000	          7.56759567	        891.78483414	        -61.06899866	          0.12883522	          0.00000000	          0.13170106	          0.00000000	          0.00000000	          0.00000000	          0.00000000	         14.63057070	          0.00000000	
          3.32500000	          0.00000000	          0.00000000	          0.00000000	          0.00000000	          0.00000000	          0.00000000	          7.80371514	        892.17073638	        -60.82415705	          0.12897694	          0.00000000	          0.13170360	          0.00000000	          0.00000000	          0.00000000	          0.00000000	         14.58157119	          0.00000000	
          3.32600000	          0.00000000	          0.00000000	          0.00000000	          0.00000000	          0.00000000	          0.00000000	          8.04907137	        892.51037937	        -60.60606193	          0.12907172	          0.00000000	          0.13171380	          0.00000000	          0.00000000	          0.00000000	          0.00000000	         14.54010365	          0.00000000	
          3.32700000	          0.00000000	          0.00000000	          0.00000000	          0.00000000	          0.00000000	          0.00000000	          8.30915312	        892.78232187	        -60.40744194	          0.12909468	          0.00000000	          0.13173145	          0.00000000	          0.00000000	          0.00000000	          0.00000000	         14.50742184	          0.00000000	
          3.32800000	          0.00000000	          0.00000000	          0.00000000	          0.00000000	          0.00000000	          0.00000000	          8.57879731	        893.02368292	        -60.22942242	          0.12905074	          0.00000000	          0.13175186	          0.00000000	          0.00000000	          0.00000000	          0.00000000	         14.48271003	          0.00000000	
          3.32900000	          0.00000000	          0.00000000	          0.00000000	          0.00000000	          0.00000000	          0.00000000	          8.85116409	        893.31027586	        -60.08080556	          0.12899432	          0.00000000	          0.13177253	          0.00000000	          0.00000000	          0.00000000	          0.00000000	         14.46291459	          0.00000000	
          3.33000000	          0.00000000	          0.00000000	          0.00000000	          0.00000000	          0.00000000	          0.00000000	          9.12608727	        893.72216736	        -59.96344246	          0.12899974	          0.00000000	          0.13179994	          0.00000000	          0.00000000	          0.00000000	          0.00000000	         14.44244500	          0.00000000	
          3.33100000	          0.00000000	          0.00000000	          0.00000000	          0.00000000	          0.00000000	          0.00000000	          9.41232862	        894.29565790	        -59.86491592	          0.12910394	          0.00000000	          0.13183957	          0.00000000	          0.00000000	          0.00000000	          0.00000000	         14.41688211	          0.00000000	
          3.33200000	          0.00000000	          0.00000000	          0.00000000	          0.00000000	          0.00000000	          0.00000000	          9.71488254	        894.99711295	        -59.76616580	          0.12928073	          0.00000000	          0.13188738	          0.00000000	          0.00000000	          0.00000000	          0.00000000	         14.38402727	          0.00000000	
          3.33300000	          0.00000000	          0.00000000	          0.00000000	          0.00000000	          0.00000000	          0.00000000	         10.02518723	        895.74853678	        -59.65277668	          0.12947275	          0.00000000	          0.13194029	          0.00000000	          0.00000000	          0.00000000	          0.00000000	         14.34074082	          0.00000000	
